<svg width="395" height="247" viewBox="0 0 395 247" fill="none" xmlns="http://www.w3.org/2000/svg">
<path d="M60.1974 158.276C58.6861 158.276 57.2394 158.065 55.8572 157.641C54.4749 157.198 53.3784 156.636 52.5675 155.954L53.8115 153.162C54.5855 153.77 55.5439 154.277 56.6865 154.683C57.8291 155.088 58.9994 155.291 60.1974 155.291C61.211 155.291 62.0311 155.18 62.6577 154.959C63.2843 154.738 63.7451 154.443 64.04 154.074C64.3348 153.687 64.4823 153.254 64.4823 152.775C64.4823 152.185 64.2703 151.715 63.8464 151.365C63.4226 150.997 62.8697 150.711 62.1878 150.508C61.5243 150.287 60.7779 150.084 59.9486 149.9C59.1377 149.716 58.3175 149.504 57.4882 149.264C56.6773 149.006 55.9309 148.684 55.249 148.297C54.5855 147.891 54.0418 147.357 53.618 146.693C53.1941 146.03 52.9821 145.182 52.9821 144.15C52.9821 143.1 53.2586 142.141 53.8115 141.275C54.3828 140.39 55.2398 139.69 56.3824 139.174C57.5435 138.64 59.0086 138.372 60.7779 138.372C61.939 138.372 63.0908 138.52 64.2335 138.815C65.3761 139.11 66.3713 139.533 67.2191 140.086L66.0857 142.878C65.2195 142.362 64.3256 141.985 63.4041 141.745C62.4826 141.487 61.598 141.358 60.7503 141.358C59.755 141.358 58.9441 141.478 58.3175 141.717C57.7093 141.957 57.2578 142.27 56.9629 142.657C56.6865 143.044 56.5483 143.487 56.5483 143.984C56.5483 144.574 56.751 145.053 57.1565 145.422C57.5803 145.772 58.124 146.048 58.7875 146.251C59.4694 146.454 60.225 146.657 61.0543 146.859C61.8837 147.044 62.7038 147.255 63.5147 147.495C64.344 147.735 65.0904 148.048 65.7539 148.435C66.4358 148.822 66.9795 149.347 67.3849 150.011C67.8088 150.674 68.0208 151.513 68.0208 152.526C68.0208 153.558 67.7351 154.517 67.1638 155.401C66.6109 156.268 65.7539 156.968 64.5928 157.502C63.4318 158.018 61.9666 158.276 60.1974 158.276ZM78.1914 158.194C76.5511 158.194 75.1136 157.871 73.8788 157.226C72.6625 156.562 71.7133 155.659 71.0314 154.517C70.368 153.374 70.0362 152.075 70.0362 150.619C70.0362 149.145 70.3588 147.845 71.0038 146.721C71.6673 145.578 72.5703 144.685 73.713 144.039C74.874 143.394 76.1918 143.072 77.6661 143.072C79.1037 143.072 80.3845 143.385 81.5087 144.012C82.6329 144.638 83.5176 145.523 84.1626 146.666C84.8077 147.808 85.1302 149.154 85.1302 150.702C85.1302 150.849 85.121 151.015 85.1025 151.199C85.1025 151.384 85.0933 151.559 85.0749 151.725H72.773V149.43H83.2503L81.8958 150.149C81.9142 149.301 81.7391 148.555 81.3705 147.91C81.0019 147.265 80.4951 146.758 79.8501 146.389C79.2234 146.021 78.4955 145.836 77.6661 145.836C76.8184 145.836 76.072 146.021 75.4269 146.389C74.8003 146.758 74.3027 147.274 73.9341 147.937C73.584 148.582 73.4089 149.347 73.4089 150.232V150.785C73.4089 151.669 73.6116 152.453 74.0171 153.135C74.4225 153.816 74.9938 154.342 75.731 154.71C76.4682 155.079 77.316 155.263 78.2743 155.263C79.1037 155.263 79.8501 155.134 80.5135 154.876C81.177 154.618 81.7667 154.213 82.2828 153.66L84.135 155.788C83.4715 156.562 82.6329 157.161 81.6193 157.585C80.6241 157.991 79.4815 158.194 78.1914 158.194ZM88.4495 158V143.238H91.7392V147.302L91.3521 146.113C91.7945 145.118 92.4856 144.362 93.4255 143.846C94.3838 143.33 95.5725 143.072 96.9916 143.072V146.362C96.8442 146.325 96.706 146.306 96.577 146.306C96.448 146.288 96.319 146.279 96.1899 146.279C94.8814 146.279 93.8402 146.666 93.0661 147.44C92.2921 148.195 91.905 149.329 91.905 150.84V158H88.4495ZM104.389 158L98.0579 143.238H101.652L107.098 156.258H105.328L110.968 143.238H114.285L107.955 158H104.389ZM116.445 158V143.238H119.901V158H116.445ZM118.187 140.805C117.542 140.805 117.007 140.602 116.583 140.197C116.178 139.791 115.975 139.303 115.975 138.732C115.975 138.142 116.178 137.654 116.583 137.267C117.007 136.861 117.542 136.658 118.187 136.658C118.832 136.658 119.357 136.852 119.762 137.239C120.186 137.608 120.398 138.077 120.398 138.649C120.398 139.257 120.195 139.773 119.79 140.197C119.385 140.602 118.85 140.805 118.187 140.805ZM131.209 158.194C129.661 158.194 128.279 157.871 127.062 157.226C125.864 156.562 124.924 155.659 124.242 154.517C123.561 153.374 123.22 152.075 123.22 150.619C123.22 149.145 123.561 147.845 124.242 146.721C124.924 145.578 125.864 144.685 127.062 144.039C128.279 143.394 129.661 143.072 131.209 143.072C132.646 143.072 133.909 143.367 134.996 143.957C136.102 144.528 136.941 145.376 137.512 146.5L134.858 148.048C134.416 147.348 133.872 146.832 133.227 146.5C132.6 146.168 131.918 146.002 131.181 146.002C130.334 146.002 129.569 146.187 128.887 146.555C128.205 146.924 127.67 147.458 127.283 148.159C126.896 148.84 126.703 149.661 126.703 150.619C126.703 151.577 126.896 152.407 127.283 153.107C127.67 153.789 128.205 154.314 128.887 154.683C129.569 155.051 130.334 155.236 131.181 155.236C131.918 155.236 132.6 155.07 133.227 154.738C133.872 154.406 134.416 153.89 134.858 153.19L137.512 154.738C136.941 155.844 136.102 156.701 134.996 157.309C133.909 157.899 132.646 158.194 131.209 158.194ZM129.771 164.303C129.274 164.303 128.813 164.248 128.389 164.137C127.965 164.045 127.578 163.907 127.228 163.722L127.864 162.091C128.159 162.239 128.454 162.349 128.749 162.423C129.062 162.497 129.394 162.534 129.744 162.534C130.278 162.534 130.656 162.442 130.877 162.257C131.098 162.073 131.209 161.833 131.209 161.539C131.209 161.262 131.089 161.041 130.85 160.875C130.628 160.709 130.26 160.626 129.744 160.626H128.887L129.633 157.806H131.513L131.126 159.355C131.937 159.447 132.536 159.705 132.923 160.129C133.328 160.571 133.531 161.087 133.531 161.677C133.531 162.488 133.19 163.123 132.508 163.584C131.826 164.063 130.914 164.303 129.771 164.303ZM146.918 158.194C145.406 158.194 144.061 157.871 142.882 157.226C141.702 156.562 140.771 155.659 140.09 154.517C139.408 153.374 139.067 152.075 139.067 150.619C139.067 149.145 139.408 147.845 140.09 146.721C140.771 145.578 141.702 144.685 142.882 144.039C144.061 143.394 145.406 143.072 146.918 143.072C148.447 143.072 149.802 143.394 150.981 144.039C152.179 144.685 153.11 145.569 153.774 146.693C154.455 147.818 154.796 149.126 154.796 150.619C154.796 152.075 154.455 153.374 153.774 154.517C153.11 155.659 152.179 156.562 150.981 157.226C149.802 157.871 148.447 158.194 146.918 158.194ZM146.918 155.236C147.765 155.236 148.521 155.051 149.185 154.683C149.848 154.314 150.364 153.78 150.733 153.079C151.12 152.379 151.313 151.559 151.313 150.619C151.313 149.661 151.12 148.84 150.733 148.159C150.364 147.458 149.848 146.924 149.185 146.555C148.521 146.187 147.775 146.002 146.945 146.002C146.098 146.002 145.342 146.187 144.679 146.555C144.033 146.924 143.517 147.458 143.13 148.159C142.743 148.84 142.55 149.661 142.55 150.619C142.55 151.559 142.743 152.379 143.13 153.079C143.517 153.78 144.033 154.314 144.679 154.683C145.342 155.051 146.088 155.236 146.918 155.236ZM171.989 158.194C170.569 158.194 169.289 157.88 168.146 157.254C167.022 156.609 166.137 155.724 165.492 154.6C164.847 153.476 164.525 152.149 164.525 150.619C164.525 149.089 164.847 147.762 165.492 146.638C166.137 145.514 167.022 144.638 168.146 144.012C169.289 143.385 170.569 143.072 171.989 143.072C173.223 143.072 174.329 143.348 175.306 143.901C176.283 144.436 177.057 145.256 177.628 146.362C178.199 147.467 178.485 148.887 178.485 150.619C178.485 152.333 178.209 153.752 177.656 154.876C177.103 155.982 176.338 156.811 175.361 157.364C174.384 157.917 173.26 158.194 171.989 158.194ZM172.403 155.236C173.233 155.236 173.97 155.051 174.615 154.683C175.278 154.314 175.803 153.78 176.191 153.079C176.596 152.379 176.799 151.559 176.799 150.619C176.799 149.661 176.596 148.84 176.191 148.159C175.803 147.458 175.278 146.924 174.615 146.555C173.97 146.187 173.233 146.002 172.403 146.002C171.574 146.002 170.827 146.187 170.164 146.555C169.519 146.924 168.994 147.458 168.588 148.159C168.201 148.84 168.008 149.661 168.008 150.619C168.008 151.559 168.201 152.379 168.588 153.079C168.994 153.78 169.519 154.314 170.164 154.683C170.827 155.051 171.574 155.236 172.403 155.236ZM176.882 158V154.517L177.02 150.591L176.743 146.666V137.488H180.171V158H176.882ZM191.658 158.194C190.018 158.194 188.581 157.871 187.346 157.226C186.129 156.562 185.18 155.659 184.498 154.517C183.835 153.374 183.503 152.075 183.503 150.619C183.503 149.145 183.826 147.845 184.471 146.721C185.134 145.578 186.037 144.685 187.18 144.039C188.341 143.394 189.659 143.072 191.133 143.072C192.571 143.072 193.851 143.385 194.976 144.012C196.1 144.638 196.984 145.523 197.63 146.666C198.275 147.808 198.597 149.154 198.597 150.702C198.597 150.849 198.588 151.015 198.569 151.199C198.569 151.384 198.56 151.559 198.542 151.725H186.24V149.43H196.717L195.363 150.149C195.381 149.301 195.206 148.555 194.837 147.91C194.469 147.265 193.962 146.758 193.317 146.389C192.69 146.021 191.962 145.836 191.133 145.836C190.285 145.836 189.539 146.021 188.894 146.389C188.267 146.758 187.77 147.274 187.401 147.937C187.051 148.582 186.876 149.347 186.876 150.232V150.785C186.876 151.669 187.079 152.453 187.484 153.135C187.889 153.816 188.461 154.342 189.198 154.71C189.935 155.079 190.783 155.263 191.741 155.263C192.571 155.263 193.317 155.134 193.98 154.876C194.644 154.618 195.234 154.213 195.75 153.66L197.602 155.788C196.938 156.562 196.1 157.161 195.086 157.585C194.091 157.991 192.948 158.194 191.658 158.194ZM215.804 158.194C214.385 158.194 213.104 157.88 211.962 157.254C210.837 156.627 209.953 155.752 209.308 154.627C208.663 153.485 208.34 152.149 208.34 150.619C208.34 149.089 208.663 147.762 209.308 146.638C209.953 145.514 210.837 144.638 211.962 144.012C213.104 143.385 214.385 143.072 215.804 143.072C217.076 143.072 218.191 143.348 219.149 143.901C220.126 144.436 220.891 145.256 221.444 146.362C222.015 147.467 222.301 148.887 222.301 150.619C222.301 152.333 222.006 153.752 221.416 154.876C220.845 155.982 220.071 156.811 219.094 157.364C218.117 157.917 217.02 158.194 215.804 158.194ZM216.191 155.236C217.02 155.236 217.767 155.051 218.43 154.683C219.094 154.314 219.619 153.78 220.006 153.079C220.393 152.379 220.587 151.559 220.587 150.619C220.587 149.661 220.393 148.84 220.006 148.159C219.619 147.458 219.094 146.924 218.43 146.555C217.767 146.187 217.02 146.002 216.191 146.002C215.362 146.002 214.615 146.187 213.952 146.555C213.307 146.924 212.791 147.458 212.404 148.159C212.017 148.84 211.823 149.661 211.823 150.619C211.823 151.559 212.017 152.379 212.404 153.079C212.791 153.78 213.307 154.314 213.952 154.683C214.615 155.051 215.362 155.236 216.191 155.236ZM220.531 163.363V154.572L220.808 150.647L220.697 146.721V143.238H223.987V163.363H220.531ZM234.756 158.194C233.503 158.194 232.397 157.963 231.438 157.502C230.48 157.023 229.734 156.304 229.199 155.346C228.665 154.369 228.398 153.144 228.398 151.669V143.238H231.853V151.199C231.853 152.526 232.148 153.522 232.738 154.185C233.346 154.83 234.203 155.153 235.309 155.153C236.12 155.153 236.82 154.987 237.41 154.655C238.018 154.323 238.488 153.826 238.82 153.162C239.17 152.499 239.345 151.679 239.345 150.702V143.238H242.8V158H239.511V154.019L240.091 155.236C239.594 156.194 238.866 156.931 237.907 157.447C236.949 157.945 235.898 158.194 234.756 158.194ZM256.42 158V155.014L256.226 154.379V149.154C256.226 148.14 255.922 147.357 255.314 146.804C254.706 146.233 253.784 145.947 252.55 145.947C251.72 145.947 250.9 146.076 250.089 146.334C249.297 146.592 248.624 146.951 248.071 147.412L246.717 144.896C247.509 144.288 248.449 143.837 249.536 143.542C250.642 143.229 251.785 143.072 252.964 143.072C255.102 143.072 256.752 143.588 257.913 144.62C259.092 145.634 259.682 147.209 259.682 149.347V158H256.42ZM251.776 158.194C250.67 158.194 249.702 158.009 248.873 157.641C248.044 157.254 247.398 156.728 246.938 156.065C246.495 155.383 246.274 154.618 246.274 153.77C246.274 152.941 246.468 152.195 246.855 151.531C247.26 150.868 247.914 150.342 248.818 149.955C249.721 149.568 250.919 149.375 252.411 149.375H256.696V151.669H252.66C251.481 151.669 250.688 151.863 250.283 152.25C249.877 152.619 249.675 153.079 249.675 153.632C249.675 154.259 249.923 154.756 250.421 155.125C250.919 155.494 251.61 155.678 252.494 155.678C253.342 155.678 254.098 155.484 254.761 155.097C255.443 154.71 255.931 154.139 256.226 153.383L256.807 155.457C256.475 156.323 255.876 156.996 255.01 157.475C254.162 157.954 253.084 158.194 251.776 158.194ZM264.117 158V137.488H267.572V158H264.117ZM272.108 158V143.238H275.563V158H272.108ZM273.849 140.805C273.204 140.805 272.67 140.602 272.246 140.197C271.84 139.791 271.638 139.303 271.638 138.732C271.638 138.142 271.84 137.654 272.246 137.267C272.67 136.861 273.204 136.658 273.849 136.658C274.494 136.658 275.02 136.852 275.425 137.239C275.849 137.608 276.061 138.077 276.061 138.649C276.061 139.257 275.858 139.773 275.453 140.197C275.047 140.602 274.513 140.805 273.849 140.805ZM286.346 158.194C284.927 158.194 283.646 157.88 282.504 157.254C281.38 156.609 280.495 155.724 279.85 154.6C279.205 153.476 278.882 152.149 278.882 150.619C278.882 149.089 279.205 147.762 279.85 146.638C280.495 145.514 281.38 144.638 282.504 144.012C283.646 143.385 284.927 143.072 286.346 143.072C287.581 143.072 288.687 143.348 289.664 143.901C290.64 144.436 291.415 145.256 291.986 146.362C292.557 147.467 292.843 148.887 292.843 150.619C292.843 152.333 292.566 153.752 292.013 154.876C291.461 155.982 290.696 156.811 289.719 157.364C288.742 157.917 287.618 158.194 286.346 158.194ZM286.761 155.236C287.59 155.236 288.328 155.051 288.973 154.683C289.636 154.314 290.161 153.78 290.548 153.079C290.954 152.379 291.157 151.559 291.157 150.619C291.157 149.661 290.954 148.84 290.548 148.159C290.161 147.458 289.636 146.924 288.973 146.555C288.328 146.187 287.59 146.002 286.761 146.002C285.932 146.002 285.185 146.187 284.522 146.555C283.877 146.924 283.352 147.458 282.946 148.159C282.559 148.84 282.366 149.661 282.366 150.619C282.366 151.559 282.559 152.379 282.946 153.079C283.352 153.78 283.877 154.314 284.522 154.683C285.185 155.051 285.932 155.236 286.761 155.236ZM291.239 158V154.517L291.378 150.591L291.101 146.666V137.488H294.529V158H291.239ZM308.172 158V155.014L307.979 154.379V149.154C307.979 148.14 307.675 147.357 307.067 146.804C306.458 146.233 305.537 145.947 304.302 145.947C303.473 145.947 302.653 146.076 301.842 146.334C301.049 146.592 300.377 146.951 299.824 147.412L298.469 144.896C299.262 144.288 300.202 143.837 301.289 143.542C302.395 143.229 303.537 143.072 304.717 143.072C306.855 143.072 308.504 143.588 309.665 144.62C310.845 145.634 311.434 147.209 311.434 149.347V158H308.172ZM303.528 158.194C302.422 158.194 301.455 158.009 300.625 157.641C299.796 157.254 299.151 156.728 298.69 156.065C298.248 155.383 298.027 154.618 298.027 153.77C298.027 152.941 298.22 152.195 298.607 151.531C299.013 150.868 299.667 150.342 300.57 149.955C301.473 149.568 302.671 149.375 304.164 149.375H308.449V151.669H304.413C303.233 151.669 302.441 151.863 302.035 152.25C301.63 152.619 301.427 153.079 301.427 153.632C301.427 154.259 301.676 154.756 302.174 155.125C302.671 155.494 303.362 155.678 304.247 155.678C305.095 155.678 305.85 155.484 306.514 155.097C307.196 154.71 307.684 154.139 307.979 153.383L308.559 155.457C308.228 156.323 307.629 156.996 306.763 157.475C305.915 157.954 304.837 158.194 303.528 158.194ZM322.144 158.194C320.725 158.194 319.444 157.88 318.301 157.254C317.177 156.609 316.292 155.724 315.647 154.6C315.002 153.476 314.68 152.149 314.68 150.619C314.68 149.089 315.002 147.762 315.647 146.638C316.292 145.514 317.177 144.638 318.301 144.012C319.444 143.385 320.725 143.072 322.144 143.072C323.379 143.072 324.484 143.348 325.461 143.901C326.438 144.436 327.212 145.256 327.783 146.362C328.355 147.467 328.64 148.887 328.64 150.619C328.64 152.333 328.364 153.752 327.811 154.876C327.258 155.982 326.493 156.811 325.517 157.364C324.54 157.917 323.416 158.194 322.144 158.194ZM322.559 155.236C323.388 155.236 324.125 155.051 324.77 154.683C325.434 154.314 325.959 153.78 326.346 153.079C326.751 152.379 326.954 151.559 326.954 150.619C326.954 149.661 326.751 148.84 326.346 148.159C325.959 147.458 325.434 146.924 324.77 146.555C324.125 146.187 323.388 146.002 322.559 146.002C321.729 146.002 320.983 146.187 320.319 146.555C319.674 146.924 319.149 147.458 318.744 148.159C318.357 148.84 318.163 149.661 318.163 150.619C318.163 151.559 318.357 152.379 318.744 153.079C319.149 153.78 319.674 154.314 320.319 154.683C320.983 155.051 321.729 155.236 322.559 155.236ZM327.037 158V154.517L327.175 150.591L326.899 146.666V137.488H330.327V158H327.037ZM341.814 158.194C340.173 158.194 338.736 157.871 337.501 157.226C336.285 156.562 335.336 155.659 334.654 154.517C333.99 153.374 333.659 152.075 333.659 150.619C333.659 149.145 333.981 147.845 334.626 146.721C335.29 145.578 336.193 144.685 337.335 144.039C338.496 143.394 339.814 143.072 341.288 143.072C342.726 143.072 344.007 143.385 345.131 144.012C346.255 144.638 347.14 145.523 347.785 146.666C348.43 147.808 348.752 149.154 348.752 150.702C348.752 150.849 348.743 151.015 348.725 151.199C348.725 151.384 348.716 151.559 348.697 151.725H336.395V149.43H346.873L345.518 150.149C345.536 149.301 345.361 148.555 344.993 147.91C344.624 147.265 344.117 146.758 343.472 146.389C342.846 146.021 342.118 145.836 341.288 145.836C340.441 145.836 339.694 146.021 339.049 146.389C338.423 146.758 337.925 147.274 337.556 147.937C337.206 148.582 337.031 149.347 337.031 150.232V150.785C337.031 151.669 337.234 152.453 337.639 153.135C338.045 153.816 338.616 154.342 339.353 154.71C340.09 155.079 340.938 155.263 341.897 155.263C342.726 155.263 343.472 155.134 344.136 154.876C344.799 154.618 345.389 154.213 345.905 153.66L347.757 155.788C347.094 156.562 346.255 157.161 345.242 157.585C344.246 157.991 343.104 158.194 341.814 158.194Z" fill="#003E7C"/>
<path d="M212.609 0H148.631C146.594 0 144.943 1.65109 144.943 3.68768V92.9059C144.943 96.032 147.478 98.5662 150.604 98.5662H201.031C209.462 98.5662 216.297 91.7316 216.297 83.3008V3.68768C216.297 1.65109 214.645 0 212.609 0V0Z" fill="#3076B0"/>
<path d="M144.943 57.1335V92.9063C144.943 96.0324 147.478 98.5666 150.604 98.5666H201.031C209.462 98.5666 216.297 91.732 216.297 83.3011V57.1335H144.943Z" fill="#8AAADC"/>
<path d="M212.83 110.579H162.402C159.276 110.579 156.742 108.045 156.742 104.918V15.7004C156.742 13.6638 158.393 12.0127 160.43 12.0127H224.408C226.444 12.0127 228.095 13.6638 228.095 15.7004V95.3133C228.096 103.744 221.261 110.579 212.83 110.579Z" fill="url(#paint0_linear_11_466)"/>
<path d="M216.342 82.2514H168.497C166.705 82.2514 165.252 80.7985 165.252 79.0063V73.8553C165.252 72.063 166.705 70.6101 168.497 70.6101H216.342C218.134 70.6101 219.587 72.063 219.587 73.8553V79.0063C219.587 80.7987 218.134 82.2514 216.342 82.2514Z" fill="#F3F3F3"/>
<path d="M228.097 52.4709H200.214V59.084L228.097 86.9664V52.4709Z" fill="url(#paint1_linear_11_466)"/>
<path d="M190.247 63.9505H168.497C166.705 63.9505 165.252 62.4976 165.252 60.7053V23.5489C165.252 21.7566 166.705 20.3037 168.497 20.3037H190.247C192.039 20.3037 193.492 21.7566 193.492 23.5489V60.7053C193.492 62.4976 192.039 63.9505 190.247 63.9505Z" fill="#F3F3F3"/>
<path d="M179.372 46.889C184.475 46.889 188.612 42.7518 188.612 37.6484C188.612 32.5449 184.475 28.4077 179.372 28.4077C174.268 28.4077 170.131 32.5449 170.131 37.6484C170.131 42.7518 174.268 46.889 179.372 46.889Z" fill="url(#paint2_linear_11_466)"/>
<path d="M190.247 63.9505C192.039 63.9505 193.492 62.4975 193.492 60.7053V56.4296C190.198 52.2593 185.1 49.5798 179.372 49.5798C173.645 49.5798 168.547 52.2595 165.252 56.4296V60.7053C165.252 62.4975 166.705 63.9505 168.498 63.9505H190.247Z" fill="url(#paint3_linear_11_466)"/>
<path d="M156.742 84.2786V104.918C156.742 108.044 159.276 110.579 162.402 110.579H212.83C221.261 110.579 228.096 103.744 228.096 95.3132V84.2786H156.742Z" fill="url(#paint4_linear_11_466)"/>
<path d="M168.063 92.5986V104.918C168.063 108.044 165.528 110.578 162.402 110.578H224.15C232.581 110.578 239.416 103.744 239.416 95.3127V92.5986C239.416 90.562 237.765 88.9109 235.728 88.9109H171.751C169.714 88.9109 168.063 90.562 168.063 92.5986Z" fill="url(#paint5_linear_11_466)"/>
<path d="M168.063 92.5986V104.918C168.063 108.044 165.528 110.578 162.402 110.578H224.15C232.581 110.578 239.416 103.744 239.416 95.3127V92.5986C239.416 90.562 237.765 88.9109 235.728 88.9109H171.751C169.714 88.9109 168.063 90.562 168.063 92.5986Z" fill="url(#paint6_linear_11_466)"/>
<path d="M215.38 22.7507C218.033 21.2889 219.68 18.4999 219.68 15.4714V4.06492C219.68 2.29177 221.118 0.854248 222.891 0.854248C226.824 0.854248 230.012 4.04259 230.012 7.97571V22.7507H215.38Z" fill="url(#paint7_linear_11_466)"/>
<path d="M254.047 25.0844C254.112 27.7519 251.859 29.978 249.191 30.0292L246.459 30.3605L250.797 30.6339C253.414 30.6981 255.503 32.8379 255.503 35.4557V35.5975C255.503 38.2154 253.414 40.3552 250.797 40.4194L245.337 40.7204L248.048 40.9864C250.658 41.0592 252.737 43.1964 252.737 45.8078V45.9817C252.737 48.5931 250.658 50.7303 248.048 50.8031L245.266 51.0713V51.1032L246.128 51.3409C248.733 51.4215 250.802 53.5561 250.802 56.1619V56.2171C250.802 58.881 248.643 61.0403 245.979 61.0403H224.018C221.173 61.0403 218.374 60.3194 215.883 58.9445L213.203 57.4658C210.712 56.0912 207.914 55.37 205.069 55.37H203.87C201.578 55.37 199.721 53.5125 199.721 51.2212V30.2C199.721 27.9087 201.578 26.0512 203.87 26.0512H205.069C207.914 26.0512 210.712 25.3302 213.203 23.9554L217.088 21.8117C218.789 20.8733 220.699 20.3811 222.642 20.3811H249.225C251.849 20.3811 253.983 22.476 254.047 25.0844Z" fill="url(#paint8_linear_11_466)"/>
<path d="M203.87 55.3706H205.069C207.914 55.3706 210.713 56.0915 213.204 57.4664L215.883 58.9451C218.374 60.3197 221.173 61.0409 224.018 61.0409H245.979C246.233 61.0409 246.481 61.0211 246.724 60.9834L210.79 25.0498C208.962 25.7105 207.027 26.0517 205.069 26.0517H203.87C201.579 26.0517 199.721 27.9092 199.721 30.2006V51.2217C199.721 53.5131 201.578 55.3706 203.87 55.3706Z" fill="url(#paint9_linear_11_466)"/>
<path d="M199.721 51.2211C199.721 53.5124 201.578 55.3699 203.87 55.3699H205.069C207.914 55.3699 210.712 56.0908 213.203 57.4657L215.883 58.9444C218.374 60.3191 221.173 61.0402 224.018 61.0402H245.979C248.643 61.0402 250.802 58.8807 250.802 56.217V56.1617C250.802 53.556 248.733 51.4214 246.128 51.3407L245.266 51.1031V51.0712L248.048 50.803C250.658 50.7302 252.737 48.593 252.737 45.9816V45.8077C252.737 45.7635 252.731 45.7206 252.73 45.6768H199.721V51.2211Z" fill="url(#paint10_linear_11_466)"/>
<path d="M249.227 20.3811H238.904L242.257 23.7334C243.595 25.072 243.595 27.2432 242.257 28.5847C241.587 29.254 241.25 30.1309 241.25 31.0077C241.25 31.8873 241.587 32.7641 242.257 33.4335C242.926 34.1056 243.261 34.9824 243.261 35.8592C243.261 36.7389 242.926 37.6157 242.257 38.285C241.587 38.9544 241.25 39.8312 241.25 40.7108C241.25 41.5905 241.587 42.4673 242.257 43.1366C242.926 43.8059 243.261 44.6827 243.261 45.5624C243.261 46.4392 242.926 47.316 242.257 47.9882C241.587 48.6575 241.25 49.5343 241.25 50.4139C241.25 51.2908 241.587 52.1676 242.257 52.8369C242.926 53.5062 243.261 54.3859 243.261 55.2627C243.261 56.1423 242.926 57.0192 242.257 57.6885L238.904 61.0403H245.98C248.643 61.0403 250.803 58.8801 250.803 56.2165V56.1612C250.803 53.5557 248.734 51.4204 246.129 51.3402L245.266 51.1024V51.072L248.048 50.8038C250.659 50.7292 252.737 48.5937 252.737 45.9828V45.8085C252.737 43.1975 250.66 41.0595 248.048 40.9875L245.338 40.7193L250.798 40.4205C253.414 40.3541 255.503 38.2161 255.503 35.5967V35.4555C255.503 32.8389 253.414 30.6981 250.798 30.6345L246.461 30.3607L249.19 30.0287C251.86 29.9789 254.111 27.7523 254.047 25.0833C253.984 22.4749 251.849 20.3811 249.227 20.3811Z" fill="url(#paint11_linear_11_466)"/>
<path d="M212.351 57.028C210.081 55.9394 207.594 55.3702 205.069 55.3702H203.87C201.578 55.3702 199.721 53.5127 199.721 51.2214V30.2002C199.721 27.9089 201.578 26.0514 203.87 26.0514H205.069C207.594 26.0514 210.081 25.4822 212.351 24.3936V57.028Z" fill="url(#paint12_linear_11_466)"/>
<path d="M206.983 60.2624H202.892C200.754 60.2624 199.021 58.5294 199.021 56.3913V24.3284C199.021 22.1905 200.754 20.4573 202.892 20.4573H206.983C209.121 20.4573 210.854 22.1903 210.854 24.3284V56.3913C210.854 58.5294 209.121 60.2624 206.983 60.2624Z" fill="#3076B0"/>
<path d="M199.021 44.8098V56.3915C199.021 58.5293 200.754 60.2626 202.892 60.2626H206.983C209.121 60.2626 210.854 58.5295 210.854 56.3915V44.8098H199.021Z" fill="#8AAADC"/>
<defs>
<linearGradient id="paint0_linear_11_466" x1="148.178" y1="16.4772" x2="239.32" y2="107.619" gradientUnits="userSpaceOnUse">
<stop stop-color="#EEF4FF"/>
<stop offset="1" stop-color="#CFE7FD"/>
</linearGradient>
<linearGradient id="paint1_linear_11_466" x1="214.155" y1="84.7772" x2="214.155" y2="54.0785" gradientUnits="userSpaceOnUse">
<stop stop-color="#8AAADC" stop-opacity="0"/>
<stop offset="1" stop-color="#8AAADC"/>
</linearGradient>
<linearGradient id="paint2_linear_11_466" x1="170.817" y1="29.094" x2="193.778" y2="52.0548" gradientUnits="userSpaceOnUse">
<stop stop-color="#8AAADC" stop-opacity="0"/>
<stop offset="1" stop-color="#8AAADC"/>
</linearGradient>
<linearGradient id="paint3_linear_11_466" x1="162.132" y1="41.9122" x2="191.983" y2="71.7634" gradientUnits="userSpaceOnUse">
<stop stop-color="#8AAADC" stop-opacity="0"/>
<stop offset="1" stop-color="#8AAADC"/>
</linearGradient>
<linearGradient id="paint4_linear_11_466" x1="192.419" y1="85.3817" x2="192.419" y2="112.708" gradientUnits="userSpaceOnUse">
<stop stop-color="#8AAADC" stop-opacity="0"/>
<stop offset="1" stop-color="#8AAADC"/>
</linearGradient>
<linearGradient id="paint5_linear_11_466" x1="200.909" y1="88.9109" x2="200.909" y2="109.997" gradientUnits="userSpaceOnUse">
<stop stop-color="#EEF4FF"/>
<stop offset="1" stop-color="#CFE7FD"/>
</linearGradient>
<linearGradient id="paint6_linear_11_466" x1="200.909" y1="98.8699" x2="200.909" y2="113.856" gradientUnits="userSpaceOnUse">
<stop stop-color="#8AAADC" stop-opacity="0"/>
<stop offset="1" stop-color="#8AAADC"/>
</linearGradient>
<linearGradient id="paint7_linear_11_466" x1="222.401" y1="11.8026" x2="233.358" y2="11.8026" gradientUnits="userSpaceOnUse">
<stop stop-color="#F4DABC"/>
<stop offset="0.0028" stop-color="#F4DABC"/>
<stop offset="1" stop-color="#E9A6AE"/>
</linearGradient>
<linearGradient id="paint8_linear_11_466" x1="212.689" y1="23.8778" x2="247.955" y2="59.144" gradientUnits="userSpaceOnUse">
<stop stop-color="#F4DABC"/>
<stop offset="0.0028" stop-color="#F4DABC"/>
<stop offset="1" stop-color="#E9A6AE"/>
</linearGradient>
<linearGradient id="paint9_linear_11_466" x1="223.991" y1="43.0452" x2="197.814" y2="43.0452" gradientUnits="userSpaceOnUse">
<stop stop-color="#E487A4" stop-opacity="0"/>
<stop offset="1" stop-color="#E487A4"/>
</linearGradient>
<linearGradient id="paint10_linear_11_466" x1="226.229" y1="50.8804" x2="226.229" y2="70.9808" gradientUnits="userSpaceOnUse">
<stop stop-color="#E487A4" stop-opacity="0"/>
<stop offset="1" stop-color="#E487A4"/>
</linearGradient>
<linearGradient id="paint11_linear_11_466" x1="249.751" y1="37.2586" x2="220.039" y2="52.5108" gradientUnits="userSpaceOnUse">
<stop stop-color="#E487A4" stop-opacity="0"/>
<stop offset="1" stop-color="#E487A4"/>
</linearGradient>
<linearGradient id="paint12_linear_11_466" x1="206.92" y1="40.7108" x2="201.489" y2="40.7108" gradientUnits="userSpaceOnUse">
<stop stop-color="#E9A6AE" stop-opacity="0"/>
<stop offset="1" stop-color="#E09380"/>
</linearGradient>
</defs>
</svg>
